<mxfile host="Electron" modified="2024-05-03T06:15:59.119Z" agent="Mozilla/5.0 (Windows NT 10.0; Win64; x64) AppleWebKit/537.36 (KHTML, like Gecko) draw.io/24.2.5 Chrome/120.0.6099.109 Electron/28.1.0 Safari/537.36" etag="1lCbJ1cuBhrK5s24xGcx" version="24.2.5" type="device">
  <diagram name="call-chain" id="GMu0QSGbvpEu1jrdlIAI">
    <mxGraphModel dx="700" dy="431" grid="1" gridSize="10" guides="1" tooltips="1" connect="1" arrows="1" fold="1" page="0" pageScale="1" pageWidth="827" pageHeight="1169" math="0" shadow="0">
      <root>
        <mxCell id="0" />
        <mxCell id="1" parent="0" />
        <mxCell id="RDYfgBnqXzUSTYOWZ7Q1-1" value="Microsoft Graph" style="text;html=1;align=center;verticalAlign=middle;whiteSpace=wrap;rounded=0;labelBackgroundColor=none;fontColor=#000000;fontSize=12;fontFamily=segoe ui;" parent="1" vertex="1">
          <mxGeometry x="545.28" y="422.5" width="110" height="20" as="geometry" />
        </mxCell>
        <mxCell id="RDYfgBnqXzUSTYOWZ7Q1-3" value="" style="shape=umlActor;verticalLabelPosition=bottom;verticalAlign=top;html=1;outlineConnect=0;" parent="1" vertex="1">
          <mxGeometry x="230" y="374" width="30" height="60" as="geometry" />
        </mxCell>
        <mxCell id="fEBycHacn4hZAo180csN-2" value="" style="shape=image;verticalLabelPosition=bottom;labelBackgroundColor=default;verticalAlign=top;aspect=fixed;imageAspect=0;image=data:image/svg+xml,PHN2ZyB4bWxuczp4bGluaz0iaHR0cDovL3d3dy53My5vcmcvMTk5OS94bGluayIgeG1sbnM9Imh0dHA6Ly93d3cudzMub3JnLzIwMDAvc3ZnIiBkYXRhLXR5cGU9IjEiIGlkPSJGeFN5bWJvbDAtMDg4IiByb2xlPSJwcmVzZW50YXRpb24iIGNsYXNzPSIiIHZpZXdCb3g9IjAgMCAyNTYgMjIxLjcwMiI+PGc+PHRpdGxlLz48cGF0aCBkPSJNNjguNDUxIDcuMzg0SDE4OC4zMkw4Ny4wNSA0NC43MzUgNjguNDUxIDcuMzg0em0xODAuMTA3IDEwMy44NzNsLTQ5LjMwMi4wMDZMMTg4LjMyIDcuMzg0bDYwLjIzOCAxMDMuODczIiBmaWxsPSIjNDFhNGVkIi8+PHBhdGggZD0iTTg3LjA1IDQ0LjczNUwxODguMzIgNy4zODRsMTAuOTM2IDEwMy44NzlMODcuMDUgNDQuNzM1IiBmaWxsPSIjMmI3Y2QyIi8+PHBhdGggZD0iTTg3LjA1IDQ0LjczNWwyLjgxIDEzMC4zIDEwOS4yMTMtNjMuNzhMODcuMDUgNDQuNzM1IiBmaWxsPSIjMDM1OGE2Ii8+PHBhdGggZD0iTTguNDc3IDExMS4yNTVsNzguNTczLTY2LjUyIDIuODI3IDEzMC4zLTgxLjQtNjMuNzh6bTgxLjQwMSA2My43NzlsMTA5LjM3OC02My43NzEtMTAuOSAxMDMuODc4LTk4LjQ3OC00MC4xMDciIGZpbGw9IiMxMDNmOTAiLz48cGF0aCBkPSJNOC40NzcgMTExLjI1NWw4MS40IDYzLjc4LTIxLjQyNiA0MC4xMDdMOC40NzcgMTExLjI1NXoiIGZpbGw9IiMxNjM4NzAiLz48cGF0aCBkPSJNNjguNDUxIDIxNS4xNDJsMjEuNDI2LTQwLjEwNyA5OC40NzkgNDAuMTA2LTExOS45MDUuMDAxeiIgZmlsbD0iIzExMmQ1NiIvPjxwYXRoIGQ9Ik04LjQ3NyAxMTEuMjU1TDY4LjQ1MSA3LjM4NCA4Ny4wNSA0NC43MzVsLTc4LjU3MyA2Ni41MnptMTc5Ljg3OSAxMDMuODg2bDYwLjA5LTEwMy44ODZoLTQ5LjE5bC0xMC45IDEwMy44ODYiIGZpbGw9IiMwMDc4ZDMiLz48cGF0aCBkPSJNMTk5LjI1NSAxMTEuMjU5di4wMDRoLjAwMWwtLjAwMS0uMDA0IiBmaWxsPSIjMjc3MGMwIi8+PHBhdGggZD0iTTI0OC40NDYgMTExLjI1NWgtNDkuMTlsLS4wMDEuMDA0di4wMDRsLTEwLjg5OSAxMDMuODc4IDYwLjA5LTEwMy44ODYiIGZpbGw9IiMwMzZkYzAiLz48cGF0aCBmaWxsPSIjZmZmZmZmIiBjbGFzcz0ibXNwb3J0YWxmeC1zdmctYzAxIiBkPSJNMjUzLjY1MiAxMDYuNzg0TDE5NC4zNDggNC4wNjcgMTkyIDBINjRsLTIuMzQ4IDQuMDY3TDIuMzQ4IDEwNi43ODQgMCAxMTAuODUxbDIuMzQ4IDQuMDY3IDU5LjMgMTAyLjcxOEw2NCAyMjEuN2gxMjhsMi4zNDgtNC4wNjYgNTkuMy0xMDIuNzE4IDIuMzUyLTQuMDY1em0tOC41OTEgMS4zODhsLTQwIC4wMDZhOS45NzggOS45NzggMCAwIDAtMy41NDYtNC4zMzFMMTkyLjM2MyAxNi45ek05OC4yODYgMTY2LjUxN2E5LjkwNyA5LjkwNyAwIDAgMC00LjU1LTIuNTI0TDkxLjM5MSA1Ny4zMjJhOS45MzggOS45MzggMCAwIDAgNC44Mi0zLjQ2OEwxODcgMTA3LjY2MmE5Ljg2IDkuODYgMCAwIDAtLjU0NSA3LjQ0N3ptOTMuMjQ1LTYzLjM4bC05My4zMi01NS4zMDhhOS45MDcgOS45MDcgMCAwIDAtLjQtMi43MzNsODcuODc3LTMyLjQgOS40MTYgODkuNDUzYTkuODQ3IDkuODQ3IDAgMCAwLTMuNTczLjk4OHpNOTQuMSAzOS44NTJhOS44NzYgOS44NzYgMCAwIDAtNS44MjUtMS45Yy0uMTYgMC0uMzE3LjAxNi0uNDc1LjAyNEw3Mi45NzIgOC4xMzRoMTA3LjE2MnptLTEyLjY5IDE1LjIxYTkuOTI2IDkuOTI2IDAgMCAwIDMuNzc0IDIuMjY4bDIuMzU2IDEwNy4xMjRhOS45MTYgOS45MTYgMCAwIDAtMi40ODQgMS40OTFsLTY5LjktNTQuNzY3ek04OS41ODkgMTgzLjRhOS44MjcgOS44MjcgMCAwIDAgOC42NDQtMi42MWw4MC41IDMyLjc3OUg3My40NzN6bTk2LjE0NSAyNi4zMjJsLTg0LjU5LTM0LjQ0NGE5LjI1MyA5LjI1MyAwIDAgMCAuMDA2LTMuMjUybDg5LTUxLjg5MWE5Ljg3OCA5Ljg3OCAwIDAgMCA0Ljc5NSAxLjh6TTY3LjI3MiAxMC42bDE0LjcxIDI5LjZhOS44IDkuOCAwIDAgMC0zLjUxIDkuMjIxbC02NS43ODggNTUuNzI4ek0xMy4yNzggMTE3LjU4Mmw2OC40NDkgNTMuNjMyYTkuODM1IDkuODM1IDAgMCAwIDIuNDEgOS4yM2wtMTYuNjEyIDMxLjF6bTE3OS4yMzYgODYuOTY0bDguODMzLTg0LjE4OWE5LjkzNiA5LjkzNiAwIDAgMCA0LjIxLTUuOTc2bDM5LjAxNy0uMDA3eiIvPjwvZz48ZGVmcz4mI3hhOzwvZGVmcz4mI3hhOzwvc3ZnPg==;" vertex="1" parent="1">
          <mxGeometry x="570" y="374" width="60.55" height="52.5" as="geometry" />
        </mxCell>
        <mxCell id="fEBycHacn4hZAo180csN-7" style="edgeStyle=orthogonalEdgeStyle;rounded=0;orthogonalLoop=1;jettySize=auto;html=1;exitX=1;exitY=0.5;exitDx=0;exitDy=0;" edge="1" parent="1">
          <mxGeometry relative="1" as="geometry">
            <mxPoint x="390" y="399.5" as="sourcePoint" />
            <mxPoint x="440" y="400" as="targetPoint" />
            <Array as="points" />
          </mxGeometry>
        </mxCell>
        <mxCell id="fEBycHacn4hZAo180csN-10" value="" style="group" vertex="1" connectable="0" parent="1">
          <mxGeometry x="450" y="371.25" width="63.73000000000002" height="72.5" as="geometry" />
        </mxCell>
        <mxCell id="p9YiVdpTm7VBxxbbTaUA-82" value="api2" style="text;html=1;align=left;verticalAlign=middle;whiteSpace=wrap;rounded=0;labelBackgroundColor=none;fontColor=#1890f1;fontSize=12;fontFamily=segoe ui;" parent="fEBycHacn4hZAo180csN-10" vertex="1">
          <mxGeometry x="9.999052352551416" y="40" width="53.73094764744866" height="32.5" as="geometry" />
        </mxCell>
        <mxCell id="AsgFPV5SbEIe7Opj8LEn-2" value="" style="shape=image;verticalLabelPosition=bottom;labelBackgroundColor=default;verticalAlign=top;aspect=fixed;imageAspect=0;image=data:image/svg+xml,PHN2ZyB4bWxuczp4bGluaz0iaHR0cDovL3d3dy53My5vcmcvMTk5OS94bGluayIgeG1sbnM9Imh0dHA6Ly93d3cudzMub3JnLzIwMDAvc3ZnIiBkYXRhLXR5cGU9IjEiIGlkPSJGeFN5bWJvbDAtMDUwIiByb2xlPSJwcmVzZW50YXRpb24iIGNsYXNzPSIiIHZpZXdCb3g9IjAgMCAxOCAxOCI+PGc+PHBhdGggZmlsbD0idXJsKCNkNjJmNzQ4My03YjEwLTRjN2QtOTQ1Zi1hOGVhY2Q4ZDMwOWYpIiBkPSJNNi44IDcuNGEuMzM4LjMzOCAwIDAgMSAuMjc3LS4zMzNsMy40MTQtLjYzdi0yLjI5YS40NTguNDU4IDAgMCAwLS4zMS0uNDMzTDUuMjM5IDIuMDI3IDAgMi45OTR2Ny4xNDJsNS4yMzkgMS4xMjQgMS41Ni0uNjI5WiIvPjxwYXRoIGZpbGw9Im5vbmUiIGQ9Im01LjQzNSAxMS4xMzkgNC43MjItMS45YS40NTkuNDU5IDAgMCAwIC4yODctLjQyNVY0LjE5YS40NTcuNDU3IDAgMCAwLS4zMTEtLjQzM0w1LjM2NyAyLjEzOWEuNDM3LjQzNyAwIDAgMC0uMjIxLS4wMTdMLjM3MyAzYS4zNTIuMzUyIDAgMCAwLS4yODguMzQ2djYuNDdhLjM1LjM1IDAgMCAwIC4yNzkuMzQ0bDQuODE0IDFhLjQ0My40NDMgMCAwIDAgLjI1Ny0uMDIxWiIvPjxwYXRoIGZpbGw9IiMzNDFhNmUiIGQ9Ik0wIDIuOTk0djcuMTQybDUuMjkxIDEuMTI0VjIuMDI3Wk0yLjIyMyA5LjYuNzQgOS4zVjMuNzkxbDEuNDgzLS4yNDhabTIuMzEyLjQxNC0xLjctLjI3NVYzLjQ1MmwxLjctLjNaIi8+PHBhdGggZmlsbD0ibm9uZSIgZD0ibTEyLjk0NSAxNS44NTIgNC43MjItMS45YS40NTcuNDU3IDAgMCAwIC4yODctLjQyNVY4LjlhLjQ1Ny40NTcgMCAwIDAtLjMxMS0uNDMzbC00Ljc2Ni0xLjYxNmEuNDQ1LjQ0NSAwIDAgMC0uMjItLjAxNmwtNC43NzQuODczYS4zNTEuMzUxIDAgMCAwLS4yODguMzQ1djYuNDc2YS4zNTEuMzUxIDAgMCAwIC4yOC4zNDRsNC44MTMgMWEuNDQzLjQ0MyAwIDAgMCAuMjU3LS4wMjFaIi8+PHBhdGggZmlsbD0idXJsKCNkNjJmNzQ4My03YjEwLTRjN2QtOTQ1Zi1hOGVhY2Q4ZDMwYTApIiBkPSJtMTIuNzUgNi43NC01LjI0Ljk2N3Y3LjE0Mmw1LjI0IDEuMTI0IDQuOTYzLTJhLjQ1Ny40NTcgMCAwIDAgLjI4Ny0uNDI3VjguODZhLjQ1OC40NTggMCAwIDAtLjMxLS40MzNaIi8+PHBhdGggZmlsbD0iIzM0MWE2ZSIgZD0iTTcuNTEgNy43MDd2Ny4xNDJsNS4yOSAxLjEyNFY2Ljc0Wm0yLjIyMyA2LjYwNS0xLjQ4My0uM1Y4LjVsMS40ODMtLjI0OFptMi4zMTIuNDE0LTEuNy0uMjc1VjguMTY1bDEuNy0uM1oiLz48L2c+PGRlZnM+JiN4YTs8bGluZWFyR3JhZGllbnQgZ3JhZGllbnRVbml0cz0idXNlclNwYWNlT25Vc2UiIHkyPSI2LjY0NCIgeDI9IjEwLjQ5IiB5MT0iNi42NDQiIGlkPSJkNjJmNzQ4My03YjEwLTRjN2QtOTQ1Zi1hOGVhY2Q4ZDMwOWYiPjxzdG9wIHN0b3AtY29sb3I9IiNiNzdhZjQiIG9mZnNldD0iMCIvPjxzdG9wIHN0b3AtY29sb3I9IiM3NzNhZGMiIG9mZnNldD0iMSIvPjwvbGluZWFyR3JhZGllbnQ+JiN4YTs8bGluZWFyR3JhZGllbnQgZ3JhZGllbnRVbml0cz0idXNlclNwYWNlT25Vc2UiIHkyPSIxMS4zNTYiIHgyPSIxOCIgeTE9IjExLjM1NiIgeDE9IjcuNTEiIGlkPSJkNjJmNzQ4My03YjEwLTRjN2QtOTQ1Zi1hOGVhY2Q4ZDMwYTAiPjxzdG9wIHN0b3AtY29sb3I9IiNiNzdhZjQiIG9mZnNldD0iMCIvPjxzdG9wIHN0b3AtY29sb3I9IiM3NzNhZGMiIG9mZnNldD0iMSIvPjwvbGluZWFyR3JhZGllbnQ+JiN4YTs8L2RlZnM+JiN4YTs8L3N2Zz4=;" parent="fEBycHacn4hZAo180csN-10" vertex="1">
          <mxGeometry width="53.01524188204111" height="53.01524188204111" as="geometry" />
        </mxCell>
        <mxCell id="fEBycHacn4hZAo180csN-11" value="" style="group" vertex="1" connectable="0" parent="1">
          <mxGeometry x="328.13" y="370" width="63.73000000000002" height="72.5" as="geometry" />
        </mxCell>
        <mxCell id="fEBycHacn4hZAo180csN-12" value="api1" style="text;html=1;align=left;verticalAlign=middle;whiteSpace=wrap;rounded=0;labelBackgroundColor=none;fontColor=#1890f1;fontSize=12;fontFamily=segoe ui;" vertex="1" parent="fEBycHacn4hZAo180csN-11">
          <mxGeometry x="9.999052352551416" y="40" width="53.73094764744866" height="32.5" as="geometry" />
        </mxCell>
        <mxCell id="fEBycHacn4hZAo180csN-13" value="" style="shape=image;verticalLabelPosition=bottom;labelBackgroundColor=default;verticalAlign=top;aspect=fixed;imageAspect=0;image=data:image/svg+xml,PHN2ZyB4bWxuczp4bGluaz0iaHR0cDovL3d3dy53My5vcmcvMTk5OS94bGluayIgeG1sbnM9Imh0dHA6Ly93d3cudzMub3JnLzIwMDAvc3ZnIiBkYXRhLXR5cGU9IjEiIGlkPSJGeFN5bWJvbDAtMDUwIiByb2xlPSJwcmVzZW50YXRpb24iIGNsYXNzPSIiIHZpZXdCb3g9IjAgMCAxOCAxOCI+PGc+PHBhdGggZmlsbD0idXJsKCNkNjJmNzQ4My03YjEwLTRjN2QtOTQ1Zi1hOGVhY2Q4ZDMwOWYpIiBkPSJNNi44IDcuNGEuMzM4LjMzOCAwIDAgMSAuMjc3LS4zMzNsMy40MTQtLjYzdi0yLjI5YS40NTguNDU4IDAgMCAwLS4zMS0uNDMzTDUuMjM5IDIuMDI3IDAgMi45OTR2Ny4xNDJsNS4yMzkgMS4xMjQgMS41Ni0uNjI5WiIvPjxwYXRoIGZpbGw9Im5vbmUiIGQ9Im01LjQzNSAxMS4xMzkgNC43MjItMS45YS40NTkuNDU5IDAgMCAwIC4yODctLjQyNVY0LjE5YS40NTcuNDU3IDAgMCAwLS4zMTEtLjQzM0w1LjM2NyAyLjEzOWEuNDM3LjQzNyAwIDAgMC0uMjIxLS4wMTdMLjM3MyAzYS4zNTIuMzUyIDAgMCAwLS4yODguMzQ2djYuNDdhLjM1LjM1IDAgMCAwIC4yNzkuMzQ0bDQuODE0IDFhLjQ0My40NDMgMCAwIDAgLjI1Ny0uMDIxWiIvPjxwYXRoIGZpbGw9IiMzNDFhNmUiIGQ9Ik0wIDIuOTk0djcuMTQybDUuMjkxIDEuMTI0VjIuMDI3Wk0yLjIyMyA5LjYuNzQgOS4zVjMuNzkxbDEuNDgzLS4yNDhabTIuMzEyLjQxNC0xLjctLjI3NVYzLjQ1MmwxLjctLjNaIi8+PHBhdGggZmlsbD0ibm9uZSIgZD0ibTEyLjk0NSAxNS44NTIgNC43MjItMS45YS40NTcuNDU3IDAgMCAwIC4yODctLjQyNVY4LjlhLjQ1Ny40NTcgMCAwIDAtLjMxMS0uNDMzbC00Ljc2Ni0xLjYxNmEuNDQ1LjQ0NSAwIDAgMC0uMjItLjAxNmwtNC43NzQuODczYS4zNTEuMzUxIDAgMCAwLS4yODguMzQ1djYuNDc2YS4zNTEuMzUxIDAgMCAwIC4yOC4zNDRsNC44MTMgMWEuNDQzLjQ0MyAwIDAgMCAuMjU3LS4wMjFaIi8+PHBhdGggZmlsbD0idXJsKCNkNjJmNzQ4My03YjEwLTRjN2QtOTQ1Zi1hOGVhY2Q4ZDMwYTApIiBkPSJtMTIuNzUgNi43NC01LjI0Ljk2N3Y3LjE0Mmw1LjI0IDEuMTI0IDQuOTYzLTJhLjQ1Ny40NTcgMCAwIDAgLjI4Ny0uNDI3VjguODZhLjQ1OC40NTggMCAwIDAtLjMxLS40MzNaIi8+PHBhdGggZmlsbD0iIzM0MWE2ZSIgZD0iTTcuNTEgNy43MDd2Ny4xNDJsNS4yOSAxLjEyNFY2Ljc0Wm0yLjIyMyA2LjYwNS0xLjQ4My0uM1Y4LjVsMS40ODMtLjI0OFptMi4zMTIuNDE0LTEuNy0uMjc1VjguMTY1bDEuNy0uM1oiLz48L2c+PGRlZnM+JiN4YTs8bGluZWFyR3JhZGllbnQgZ3JhZGllbnRVbml0cz0idXNlclNwYWNlT25Vc2UiIHkyPSI2LjY0NCIgeDI9IjEwLjQ5IiB5MT0iNi42NDQiIGlkPSJkNjJmNzQ4My03YjEwLTRjN2QtOTQ1Zi1hOGVhY2Q4ZDMwOWYiPjxzdG9wIHN0b3AtY29sb3I9IiNiNzdhZjQiIG9mZnNldD0iMCIvPjxzdG9wIHN0b3AtY29sb3I9IiM3NzNhZGMiIG9mZnNldD0iMSIvPjwvbGluZWFyR3JhZGllbnQ+JiN4YTs8bGluZWFyR3JhZGllbnQgZ3JhZGllbnRVbml0cz0idXNlclNwYWNlT25Vc2UiIHkyPSIxMS4zNTYiIHgyPSIxOCIgeTE9IjExLjM1NiIgeDE9IjcuNTEiIGlkPSJkNjJmNzQ4My03YjEwLTRjN2QtOTQ1Zi1hOGVhY2Q4ZDMwYTAiPjxzdG9wIHN0b3AtY29sb3I9IiNiNzdhZjQiIG9mZnNldD0iMCIvPjxzdG9wIHN0b3AtY29sb3I9IiM3NzNhZGMiIG9mZnNldD0iMSIvPjwvbGluZWFyR3JhZGllbnQ+JiN4YTs8L2RlZnM+JiN4YTs8L3N2Zz4=;" vertex="1" parent="fEBycHacn4hZAo180csN-11">
          <mxGeometry width="53.01524188204111" height="53.01524188204111" as="geometry" />
        </mxCell>
        <mxCell id="fEBycHacn4hZAo180csN-14" style="edgeStyle=orthogonalEdgeStyle;rounded=0;orthogonalLoop=1;jettySize=auto;html=1;exitX=1;exitY=0.5;exitDx=0;exitDy=0;" edge="1" parent="1">
          <mxGeometry relative="1" as="geometry">
            <mxPoint x="511" y="399.5" as="sourcePoint" />
            <mxPoint x="561" y="400" as="targetPoint" />
            <Array as="points" />
          </mxGeometry>
        </mxCell>
        <mxCell id="gzpNSmNBXNVHV9tg-2LD-1" style="edgeStyle=orthogonalEdgeStyle;rounded=0;orthogonalLoop=1;jettySize=auto;html=1;exitX=1;exitY=0.5;exitDx=0;exitDy=0;" edge="1" parent="1">
          <mxGeometry relative="1" as="geometry">
            <mxPoint x="268" y="399.5" as="sourcePoint" />
            <mxPoint x="318" y="400" as="targetPoint" />
            <Array as="points" />
          </mxGeometry>
        </mxCell>
      </root>
    </mxGraphModel>
  </diagram>
</mxfile>
